<?xml version="1.0" encoding="UTF-8"?>
<svg id="Layer_1" data-name="Layer 1" xmlns="http://www.w3.org/2000/svg" viewBox="0 0 128.37 128.67">
  <defs>
    <style>
      .cls-1 {
        fill: #fff;
      }

      .cls-2 {
        fill: #1a72d1;
      }
    </style>
  </defs>
  <path class="cls-1" d="M63.59.31C28.13.64-.32,29.65,0,65.09c.34,35.44,29.34,63.91,64.8,63.57,35.44-.32,63.91-29.34,63.57-64.78C128.04,28.44,99.03-.03,63.59.31ZM64.49,96.87c-17.88.16-32.52-14.19-32.68-32.07-.18-17.88,14.19-32.53,32.07-32.69,17.88-.16,32.52,14.19,32.69,32.07.16,17.88-14.19,32.53-32.09,32.69Z"/>
  <polygon class="cls-2" points="16.82 37.73 17.34 92.13 64.19 64.49 16.82 37.73"/>
</svg>