<?xml version="1.0" encoding="UTF-8"?>
<svg id="Layer_1" data-name="Layer 1" xmlns="http://www.w3.org/2000/svg" viewBox="0 0 396.67 128.67">
  <defs>
    <style>
      .cls-1 {
        fill: #fff;
      }

      .cls-2 {
        fill: #1a72d1;
      }
    </style>
  </defs>
  <g>
    <path class="cls-1" d="M55.02,20.87c-24.01.22-43.28,19.87-43.06,43.87.23,24,19.87,43.28,43.88,43.05,24-.22,43.28-19.87,43.05-43.87-.22-24-19.87-43.28-43.87-43.05ZM55.63,86.26c-12.11.11-22.02-9.61-22.13-21.72-.12-12.11,9.61-22.03,21.72-22.14,12.11-.11,22.02,9.61,22.14,21.72.11,12.11-9.61,22.03-21.73,22.14Z"/>
    <polygon class="cls-2" points="23.35 46.22 23.7 83.05 55.43 64.33 23.35 46.22"/>
  </g>
  <g>
    <g>
      <path class="cls-2" d="M150.06,42.02c-1.01,1.86-2.57,3.36-4.67,4.51-2.11,1.15-4.74,1.75-7.88,1.77l-5.81.05.13,13.82-9.38.09-.36-38.5,15.19-.14c3.07-.03,5.67.48,7.8,1.52,2.13,1.04,3.73,2.49,4.81,4.34,1.08,1.86,1.63,3.99,1.65,6.4.02,2.23-.47,4.27-1.48,6.13ZM140.71,39.56c.87-.85,1.3-2.04,1.28-3.58-.01-1.54-.46-2.72-1.35-3.55-.88-.83-2.22-1.24-4.02-1.22l-5.1.05.09,9.65,5.1-.05c1.79-.02,3.12-.45,3.99-1.3Z"/>
      <path class="cls-2" d="M169.88,32.35c1.64-.98,3.46-1.49,5.47-1.51l.09,9.93-2.58.02c-2.34.02-4.09.54-5.25,1.56-1.16,1.02-1.73,2.79-1.7,5.31l.13,14.2-9.38.09-.29-30.6,9.38-.09.05,5.1c1.08-1.69,2.44-3.03,4.08-4.02Z"/>
      <path class="cls-2" d="M179.83,38.09c1.16-2.39,2.77-4.23,4.8-5.53s4.31-1.96,6.84-1.98c2.16-.02,4.05.4,5.69,1.26,1.63.86,2.9,2,3.79,3.42l-.04-4.33,9.38-.09.29,30.6-9.38.09-.04-4.33c-.9,1.44-2.16,2.6-3.78,3.49-1.62.89-3.51,1.35-5.66,1.37-2.49.02-4.76-.6-6.82-1.88-2.06-1.28-3.7-3.11-4.9-5.49-1.21-2.38-1.83-5.15-1.86-8.29-.03-3.14.54-5.91,1.7-8.3ZM199.05,40.71c-1.31-1.34-2.9-2-4.76-1.98-1.86.02-3.44.7-4.73,2.05-1.29,1.35-1.92,3.19-1.89,5.53.02,2.34.69,4.19,2,5.55,1.31,1.36,2.9,2.03,4.76,2.01,1.87-.02,3.44-.71,4.72-2.08,1.28-1.36,1.92-3.22,1.89-5.56-.02-2.34-.69-4.18-2-5.52Z"/>
      <path class="cls-2" d="M234.36,53.27l.07,7.95-4.77.04c-3.4.03-6.06-.77-7.98-2.42-1.92-1.65-2.89-4.35-2.93-8.12l-.12-12.18-3.73.04-.07-7.79,3.73-.04-.07-7.46,9.38-.09.07,7.46,6.14-.06.07,7.79-6.14.06.12,12.28c0,.91.23,1.57.68,1.97.44.4,1.18.59,2.2.58l3.35-.03Z"/>
      <path class="cls-2" d="M266.64,33.47c2.14,2.3,3.23,5.48,3.27,9.54l.17,17.88-9.32.09-.16-16.62c-.02-2.05-.56-3.63-1.63-4.76-1.07-1.12-2.5-1.68-4.29-1.66-1.79.02-3.21.6-4.26,1.74-1.05,1.14-1.57,2.74-1.55,4.79l.16,16.62-9.38.09-.38-40.58,9.38-.09.13,14.09c.94-1.36,2.23-2.45,3.86-3.27,1.64-.82,3.48-1.24,5.53-1.26,3.51-.03,6.34,1.1,8.48,3.4Z"/>
      <path class="cls-2" d="M276.3,37.19c1.16-2.39,2.77-4.23,4.8-5.53,2.04-1.3,4.31-1.96,6.84-1.98,2.16-.02,4.05.4,5.69,1.26,1.64.86,2.9,2,3.79,3.42l-.04-4.33,9.38-.09.29,30.6-9.38.09-.04-4.33c-.9,1.44-2.16,2.6-3.78,3.49-1.62.89-3.51,1.35-5.67,1.37-2.49.02-4.76-.6-6.82-1.88-2.06-1.28-3.7-3.11-4.91-5.5-1.21-2.38-1.83-5.15-1.86-8.29-.03-3.14.54-5.91,1.7-8.3ZM295.52,39.8c-1.31-1.34-2.9-2-4.76-1.98s-3.44.7-4.72,2.05c-1.29,1.35-1.92,3.19-1.89,5.53.02,2.34.69,4.19,2,5.55,1.31,1.36,2.9,2.03,4.76,2.01s3.44-.71,4.72-2.07c1.29-1.36,1.92-3.22,1.89-5.56-.02-2.34-.69-4.18-2-5.52Z"/>
      <path class="cls-2" d="M361.71,32.54c2.27,2.28,3.43,5.47,3.46,9.57l.17,17.88-9.32.09-.16-16.62c-.02-1.97-.55-3.5-1.61-4.57-1.05-1.07-2.49-1.59-4.32-1.58-1.83.02-3.26.57-4.29,1.66-1.03,1.09-1.54,2.62-1.52,4.59l.16,16.62-9.32.09-.16-16.62c-.02-1.97-.55-3.5-1.61-4.56-1.05-1.07-2.49-1.59-4.32-1.58-1.83.02-3.26.57-4.29,1.66-1.03,1.09-1.54,2.62-1.52,4.59l.16,16.62-9.38.09-.29-30.6,9.38-.09.04,3.84c.94-1.29,2.17-2.31,3.7-3.08,1.53-.76,3.26-1.16,5.2-1.17,2.3-.02,4.36.45,6.18,1.42s3.25,2.37,4.29,4.18c1.04-1.69,2.47-3.08,4.29-4.15,1.82-1.08,3.8-1.63,5.96-1.65,3.8-.04,6.84,1.09,9.11,3.37Z"/>
    </g>
    <g>
      <path class="cls-1" d="M119.03,77.64c1.65-2.98,3.94-5.3,6.88-6.97,2.94-1.66,6.28-2.5,10.01-2.5,4.57,0,8.48,1.21,11.74,3.62,3.25,2.41,5.43,5.7,6.53,9.87h-10.31c-.77-1.61-1.86-2.83-3.26-3.67-1.41-.84-3.01-1.26-4.8-1.26-2.89,0-5.23,1.01-7.02,3.02-1.79,2.01-2.69,4.7-2.69,8.06s.9,6.05,2.69,8.06c1.79,2.01,4.13,3.02,7.02,3.02,1.79,0,3.39-.42,4.8-1.26,1.41-.84,2.5-2.07,3.26-3.67h10.31c-1.1,4.17-3.27,7.45-6.53,9.84-3.25,2.4-7.17,3.59-11.74,3.59-3.73,0-7.07-.83-10.01-2.5-2.94-1.66-5.24-3.98-6.88-6.94s-2.47-6.34-2.47-10.15.82-7.19,2.47-10.17Z"/>
      <path class="cls-1" d="M237.49,107.12h-9.38l-15.69-23.75v23.75h-9.38v-38.5h9.38l15.69,23.86v-23.86h9.38v38.5Z"/>
      <path class="cls-1" d="M278.74,107.12h-9.38l-15.69-23.75v23.75h-9.38v-38.5h9.38l15.69,23.86v-23.86h9.38v38.5Z"/>
      <path class="cls-1" d="M294.92,76.13v7.79h12.56v7.24h-12.56v8.45h14.2v7.51h-23.58v-38.5h23.58v7.51h-14.2Z"/>
      <path class="cls-1" d="M316.09,77.64c1.65-2.98,3.94-5.3,6.88-6.97,2.94-1.66,6.28-2.5,10.01-2.5,4.57,0,8.48,1.21,11.74,3.62,3.25,2.41,5.43,5.7,6.53,9.87h-10.31c-.77-1.61-1.86-2.83-3.26-3.67-1.41-.84-3.01-1.26-4.8-1.26-2.89,0-5.23,1.01-7.02,3.02-1.79,2.01-2.69,4.7-2.69,8.06s.89,6.05,2.69,8.06c1.79,2.01,4.13,3.02,7.02,3.02,1.79,0,3.39-.42,4.8-1.26,1.41-.84,2.5-2.07,3.26-3.67h10.31c-1.1,4.17-3.27,7.45-6.53,9.84-3.26,2.4-7.17,3.59-11.74,3.59-3.73,0-7.07-.83-10.01-2.5-2.94-1.66-5.24-3.98-6.88-6.94s-2.47-6.34-2.47-10.15.82-7.19,2.47-10.17Z"/>
      <path class="cls-1" d="M384.7,68.62v7.51h-10.2v30.99h-9.38v-30.99h-10.2v-7.51h29.78Z"/>
      <g>
        <path class="cls-1" d="M177.27,67.41c-11.25.11-20.29,9.32-20.18,20.57.11,11.25,9.31,20.29,20.57,20.19,11.25-.11,20.29-9.32,20.18-20.57-.11-11.25-9.31-20.29-20.57-20.19ZM177.56,98.07c-3.81.04-7.15-2-8.95-5.06l8.86-5.23-8.95-5.05c1.74-3.09,5.05-5.19,8.85-5.23,5.68-.05,10.33,4.51,10.38,10.19.05,5.68-4.51,10.32-10.18,10.38Z"/>
        <g>
          <path class="cls-1" d="M177.46,87.79l-8.86,5.23c-.89-1.5-1.41-3.25-1.43-5.13-.02-1.87.47-3.63,1.33-5.15l8.95,5.05Z"/>
          <polygon class="cls-2" points="177.46 87.79 168.61 93.01 162.59 96.56 162.42 79.29 168.51 82.73 177.46 87.79"/>
        </g>
      </g>
    </g>
  </g>
</svg>