<?xml version="1.0" encoding="UTF-8"?>
<svg id="Layer_2" data-name="Layer 2" xmlns="http://www.w3.org/2000/svg" viewBox="0 0 595.28 841.89">
  <defs>
    <style>
      .cls-1 {
        fill: #ec6801;
      }

      .cls-1, .cls-2 {
        fill-rule: evenodd;
      }

      .cls-2 {
        fill: #878786;
      }

      .cls-3 {
        fill: #6f6f6e;
      }

      .cls-4 {
        fill: #1a1a18;
      }

      .cls-5 {
        fill: #3b3b3a;
      }

      .cls-6 {
        fill: #575656;
      }
    </style>
  </defs>
  <g>
    <g>
      <path class="cls-5" d="M60.35,509.74v-71.07h23.03c8.73,0,14.41.36,17.06,1.07,4.07,1.07,7.48,3.39,10.23,6.96,2.75,3.57,4.12,8.19,4.12,13.84,0,4.36-.79,8.03-2.38,11-1.58,2.97-3.6,5.31-6.04,7-2.44,1.7-4.92,2.82-7.44,3.37-3.43.68-8.39,1.02-14.88,1.02h-9.36v26.81h-14.35ZM74.7,450.69v20.17h7.85c5.66,0,9.44-.37,11.34-1.12,1.91-.74,3.4-1.91,4.48-3.49,1.08-1.58,1.62-3.43,1.62-5.53,0-2.58-.76-4.72-2.28-6.4-1.52-1.68-3.44-2.73-5.77-3.15-1.71-.32-5.16-.48-10.33-.48h-6.93Z"/>
      <path class="cls-5" d="M126.62,509.74v-71.07h30.2c7.59,0,13.11.64,16.56,1.92,3.44,1.28,6.2,3.55,8.27,6.81,2.07,3.26,3.1,7,3.1,11.2,0,5.33-1.57,9.74-4.7,13.21-3.14,3.47-7.82,5.66-14.06,6.57,3.1,1.81,5.66,3.8,7.68,5.96,2.02,2.17,4.74,6.01,8.17,11.54l8.68,13.87h-17.16l-10.37-15.46c-3.68-5.53-6.21-9.01-7.56-10.45-1.36-1.44-2.8-2.42-4.31-2.96-1.52-.53-3.93-.8-7.22-.8h-2.91v29.67h-14.35ZM140.97,468.72h10.62c6.88,0,11.18-.29,12.9-.87,1.71-.58,3.05-1.58,4.02-3.01.97-1.42,1.45-3.2,1.45-5.33,0-2.39-.64-4.32-1.91-5.79-1.28-1.47-3.08-2.4-5.41-2.79-1.16-.16-4.65-.24-10.47-.24h-11.2v18.03Z"/>
      <path class="cls-5" d="M262.37,509.74h-15.61l-6.21-16.14h-28.41l-5.87,16.14h-15.22l27.68-71.07h15.17l28.46,71.07ZM235.95,481.62l-9.79-26.37-9.6,26.37h19.39Z"/>
      <path class="cls-5" d="M278.61,509.74v-59.05h-21.09v-12.02h56.48v12.02h-21.04v59.05h-14.35Z"/>
      <path class="cls-5" d="M323.31,509.74v-71.07h14.35v27.97h28.12v-27.97h14.35v71.07h-14.35v-31.08h-28.12v31.08h-14.35Z"/>
      <path class="cls-5" d="M459.05,509.74h-15.61l-6.21-16.14h-28.41l-5.87,16.14h-15.22l27.68-71.07h15.17l28.46,71.07ZM432.63,481.62l-9.79-26.37-9.6,26.37h19.39Z"/>
      <path class="cls-5" d="M466.47,509.74v-71.07h21.48l12.9,48.48,12.75-48.48h21.53v71.07h-13.33v-55.95l-14.11,55.95h-13.82l-14.06-55.95v55.95h-13.33Z"/>
    </g>
    <g>
      <path class="cls-4" d="M130.65,542.01v-20.23h4v20.23h-4Z"/>
      <path class="cls-4" d="M148.02,542.01v-20.23h3.9l8.13,13.51v-13.51h3.73v20.23h-4.03l-7.99-13.19v13.19h-3.73Z"/>
      <path class="cls-4" d="M181.95,542.01v-16.81h-5.9v-3.42h15.77v3.42h-5.88v16.81h-4Z"/>
      <path class="cls-4" d="M203.92,542.01v-20.23h14.73v3.42h-10.74v4.49h9.98v3.41h-9.98v5.49h11.1v3.42h-15.1Z"/>
      <path class="cls-4" d="M231.9,542.01v-20.23h8.44c2.16,0,3.7.18,4.62.54.92.36,1.68.99,2.28,1.89s.89,1.97.89,3.22c0,1.58-.45,2.86-1.36,3.82-.91.97-2.2,1.57-3.87,1.82.86.51,1.57,1.08,2.13,1.69.56.61,1.33,1.71,2.3,3.29l2.41,3.95h-4.78l-2.9-4.4c-1.04-1.59-1.75-2.59-2.13-2.99-.37-.4-.77-.68-1.19-.83-.42-.15-1.09-.23-2.02-.23h-.83v8.45h-4ZM235.9,530.34h2.97c1.82,0,2.97-.07,3.47-.2.5-.13.9-.4,1.21-.81.31-.4.46-.94.46-1.61s-.15-1.16-.46-1.55c-.31-.39-.73-.66-1.26-.81-.37-.1-1.46-.15-3.25-.15h-3.14v5.13Z"/>
      <path class="cls-4" d="M261.44,542.01v-20.23h3.9l8.13,13.51v-13.51h3.73v20.23h-4.03l-7.99-13.19v13.19h-3.73Z"/>
      <path class="cls-4" d="M308.81,542.01h-4.35l-1.74-4.58h-7.95l-1.64,4.58h-4.26l7.73-20.23h4.25l7.96,20.23ZM301.44,534.01l-2.74-7.51-2.69,7.51h5.43Z"/>
      <path class="cls-4" d="M322.84,542.01v-16.81h-5.9v-3.42h15.77v3.42h-5.88v16.81h-4Z"/>
      <path class="cls-4" d="M344.68,542.01v-20.23h4v20.23h-4Z"/>
      <path class="cls-4" d="M361.18,532.02c0-2.41.43-4.4,1.28-5.95.85-1.56,1.97-2.72,3.34-3.48,1.38-.76,3.04-1.15,5-1.15,2.84,0,5.16.91,6.94,2.72,1.79,1.81,2.68,4.39,2.68,7.74s-.95,6.03-2.84,7.93c-1.66,1.68-3.92,2.53-6.77,2.53s-5.14-.83-6.8-2.5c-1.89-1.9-2.84-4.52-2.84-7.84ZM365.31,531.88c0,2.33.53,4.07,1.59,5.24,1.06,1.16,2.37,1.75,3.94,1.75s2.88-.58,3.92-1.73c1.04-1.15,1.56-2.93,1.56-5.32s-.5-4.08-1.51-5.2c-1.01-1.12-2.33-1.68-3.96-1.68s-2.96.57-3.99,1.7c-1.03,1.13-1.54,2.88-1.54,5.26Z"/>
      <path class="cls-4" d="M393.11,542.01v-20.23h3.9l8.13,13.51v-13.51h3.73v20.23h-4.03l-7.99-13.19v13.19h-3.73Z"/>
      <path class="cls-4" d="M440.49,542.01h-4.34l-1.74-4.58h-7.95l-1.64,4.58h-4.26l7.73-20.23h4.25l7.96,20.23ZM433.11,534.01l-2.74-7.51-2.69,7.51h5.43Z"/>
      <path class="cls-4" d="M452.18,542.01v-20.06h4v16.64h9.98v3.42h-13.97Z"/>
    </g>
    <g>
      <path class="cls-3" d="M152.89,569.68v-15.95h1.51l5.31,9.77,5.35-9.77h1.49v15.95h-1.62v-12.45l-5.22,9.43-5.22-9.43v12.45h-1.61Z"/>
      <path class="cls-3" d="M170.17,569.68v-12.37h1.62v12.37h-1.62Z"/>
      <path class="cls-3" d="M182.19,564.88v-1.78h4.19v3.73c-.59,1.06-1.35,1.86-2.3,2.41s-2.04.82-3.29.82c-1.87,0-3.41-.61-4.6-1.84-1.19-1.23-1.79-2.79-1.79-4.67s.6-3.45,1.8-4.69c1.2-1.24,2.73-1.86,4.58-1.86,1.17,0,2.22.25,3.13.74.91.49,1.66,1.21,2.27,2.17l-1.23,1.07c-.43-.68-1.01-1.22-1.74-1.61-.73-.39-1.54-.59-2.42-.59-1.39,0-2.53.45-3.42,1.34-.89.9-1.33,2.03-1.33,3.39s.44,2.5,1.33,3.4c.89.9,2.03,1.34,3.42,1.34.87,0,1.68-.19,2.42-.58.74-.38,1.26-.88,1.55-1.47v-1.33h-2.58Z"/>
      <path class="cls-3" d="M190.91,564.29v5.39h-1.6v-12.31h7c1.04,0,1.85.3,2.44.91.59.61.88,1.45.88,2.53,0,.88-.23,1.63-.7,2.28-.46.64-1.07,1.03-1.82,1.18l2.82,5.42h-1.73l-2.88-5.39h-4.43ZM190.91,562.48h5.41c.55,0,.97-.14,1.26-.43.29-.29.43-.7.43-1.24s-.14-.95-.43-1.24c-.29-.28-.71-.43-1.26-.43h-5.41v3.34Z"/>
      <path class="cls-3" d="M200.14,569.68l5.17-12.34h1l5.22,12.34h-1.7l-1.32-3.14h-5.37l-1.31,3.14h-1.68ZM203.82,564.91h3.98l-1.98-4.72-2,4.72Z"/>
      <path class="cls-3" d="M214.58,569.68v-10.62h-4.29v-1.72h10.17v1.72h-4.3v10.62h-1.58Z"/>
      <path class="cls-3" d="M222.06,569.68v-12.37h1.62v12.37h-1.62Z"/>
      <path class="cls-3" d="M227.21,569.68v-12.34h.83l6.47,8.67v-8.67h1.56v12.34h-.83l-6.45-8.64v8.64h-1.57Z"/>
      <path class="cls-3" d="M246.45,564.88v-1.78h4.19v3.73c-.59,1.06-1.35,1.86-2.3,2.41-.94.55-2.04.82-3.29.82-1.87,0-3.41-.61-4.6-1.84-1.19-1.23-1.79-2.79-1.79-4.67s.6-3.45,1.8-4.69c1.2-1.24,2.73-1.86,4.58-1.86,1.17,0,2.22.25,3.13.74.91.49,1.66,1.21,2.27,2.17l-1.23,1.07c-.43-.68-1.01-1.22-1.74-1.61-.73-.39-1.54-.59-2.42-.59-1.39,0-2.53.45-3.42,1.34-.89.9-1.33,2.03-1.33,3.39s.44,2.5,1.33,3.4c.89.9,2.03,1.34,3.42,1.34.87,0,1.68-.19,2.42-.58.74-.38,1.26-.88,1.55-1.47v-1.33h-2.58Z"/>
      <path class="cls-3" d="M261.85,569.68v-15.95h7.54c1.28,0,2.28.39,3.02,1.16s1.1,1.83,1.1,3.16-.36,2.51-1.07,3.37c-.71.86-1.66,1.29-2.84,1.29h-6.12v6.98h-1.63ZM263.48,560.84h5.8c.83,0,1.45-.22,1.88-.66.42-.44.64-1.09.64-1.95s-.21-1.49-.64-1.96c-.42-.47-1.02-.7-1.79-.7h-5.88v5.27Z"/>
      <path class="cls-3" d="M275.53,569.68v-12.34h9.54v1.81h-7.94v3.08h5.22v1.78h-5.22v3.9h8.38v1.78h-9.98Z"/>
      <path class="cls-3" d="M293.12,570.07c-1.81,0-3.3-.62-4.47-1.86-1.17-1.24-1.75-2.8-1.75-4.68s.58-3.45,1.74-4.67c1.16-1.23,2.65-1.84,4.47-1.84s3.33.61,4.5,1.84c1.16,1.22,1.74,2.78,1.74,4.68s-.58,3.45-1.75,4.69c-1.17,1.24-2.66,1.86-4.49,1.86ZM293.12,568.26c1.36,0,2.46-.45,3.32-1.34.86-.89,1.29-2.03,1.29-3.4s-.43-2.5-1.29-3.39c-.86-.9-1.97-1.34-3.32-1.34s-2.45.45-3.3,1.34c-.85.89-1.28,2.03-1.28,3.4s.43,2.51,1.28,3.4c.85.89,1.95,1.34,3.3,1.34Z"/>
      <path class="cls-3" d="M303.56,564.29v5.39h-1.6v-12.34h7.4c1.05,0,1.86.3,2.45.9.58.6.87,1.45.87,2.54,0,1.03-.29,1.87-.87,2.53-.58.66-1.34.98-2.29.98h-5.97ZM303.56,562.48h5.8c.54,0,.95-.14,1.24-.43.29-.29.43-.7.43-1.24s-.14-.94-.42-1.23c-.28-.29-.67-.43-1.19-.43h-5.87v3.34Z"/>
      <path class="cls-3" d="M314.92,569.68v-12.34h1.6v10.56h7.55v1.78h-9.15Z"/>
      <path class="cls-3" d="M325.88,569.68v-12.34h9.54v1.81h-7.94v3.08h5.22v1.78h-5.22v3.9h8.38v1.78h-9.98Z"/>
      <path class="cls-3" d="M352.24,570.1c-1.97,0-3.59-.79-4.88-2.36-1.28-1.58-1.92-3.57-1.92-5.99s.64-4.43,1.93-6c1.29-1.57,2.91-2.36,4.87-2.36s3.6.79,4.89,2.37c1.29,1.58,1.94,3.58,1.94,6s-.64,4.41-1.93,5.99c-1.29,1.58-2.92,2.36-4.9,2.36ZM352.24,568.23c1.48,0,2.7-.61,3.67-1.83.97-1.22,1.45-2.77,1.45-4.65s-.48-3.44-1.45-4.67c-.96-1.22-2.19-1.83-3.67-1.83s-2.7.61-3.67,1.84c-.97,1.23-1.45,2.78-1.45,4.66s.48,3.43,1.45,4.65c.97,1.22,2.19,1.83,3.67,1.83Z"/>
      <path class="cls-3" d="M366.14,569.68h-.82l-5.11-12.34h1.69l3.82,9.23,3.76-9.23h1.75l-5.1,12.34Z"/>
      <path class="cls-3" d="M373.21,569.68v-12.34h9.54v1.81h-7.94v3.08h5.22v1.78h-5.22v3.9h8.38v1.78h-9.98Z"/>
      <path class="cls-3" d="M387.08,564.29v5.39h-1.6v-12.31h7c1.04,0,1.85.3,2.44.91.59.61.88,1.45.88,2.53,0,.88-.23,1.63-.7,2.28-.46.64-1.07,1.03-1.82,1.18l2.82,5.42h-1.73l-2.88-5.39h-4.43ZM387.08,562.48h5.41c.55,0,.97-.14,1.26-.43.29-.29.43-.7.43-1.24s-.14-.95-.43-1.24c-.29-.28-.71-.43-1.26-.43h-5.41v3.34Z"/>
      <path class="cls-3" d="M397.8,568.1l.77-1.62c.7.57,1.46,1.01,2.29,1.33.83.32,1.62.48,2.37.48.91,0,1.64-.22,2.19-.67.56-.45.83-1.02.83-1.73s-.25-1.23-.76-1.57c-.51-.34-1.31-.53-2.41-.57-1.85-.03-3.12-.29-3.81-.78-.69-.49-1.04-1.3-1.04-2.44,0-1.06.38-1.91,1.14-2.56.76-.65,1.78-.97,3.05-.97.87,0,1.72.15,2.54.45.82.3,1.61.74,2.38,1.33l-.8,1.6c-.64-.52-1.32-.92-2.05-1.21-.73-.28-1.43-.43-2.1-.43-.77,0-1.39.16-1.86.49-.47.33-.7.76-.7,1.29s.24.94.71,1.17c.47.23,1.29.35,2.46.35,1.62,0,2.84.33,3.67,1,.83.67,1.24,1.65,1.24,2.96,0,1.17-.42,2.13-1.26,2.9-.84.77-1.92,1.16-3.26,1.16-.98,0-1.96-.17-2.93-.51-.97-.34-1.86-.83-2.67-1.45Z"/>
      <path class="cls-3" d="M410.75,569.68v-12.34h9.54v1.81h-7.94v3.08h5.22v1.78h-5.22v3.9h8.38v1.78h-9.98Z"/>
      <path class="cls-3" d="M421.05,569.68l5.17-12.34h1l5.22,12.34h-1.7l-1.32-3.14h-5.37l-1.31,3.14h-1.68ZM424.73,564.91h3.98l-1.98-4.72-2,4.72Z"/>
      <path class="cls-3" d="M433.08,568.1l.77-1.62c.7.57,1.46,1.01,2.29,1.33.83.32,1.62.48,2.37.48.91,0,1.64-.22,2.19-.67.56-.45.83-1.02.83-1.73s-.25-1.23-.76-1.57c-.51-.34-1.31-.53-2.41-.57-1.85-.03-3.12-.29-3.81-.78s-1.04-1.3-1.04-2.44c0-1.06.38-1.91,1.14-2.56.76-.65,1.78-.97,3.05-.97.87,0,1.72.15,2.54.45.82.3,1.61.74,2.38,1.33l-.8,1.6c-.64-.52-1.32-.92-2.05-1.21-.73-.28-1.43-.43-2.1-.43-.77,0-1.39.16-1.86.49-.47.33-.7.76-.7,1.29s.24.94.71,1.17c.47.23,1.29.35,2.46.35,1.62,0,2.84.33,3.67,1,.83.67,1.24,1.65,1.24,2.96,0,1.17-.42,2.13-1.26,2.9-.84.77-1.92,1.16-3.26,1.16-.98,0-1.96-.17-2.93-.51-.97-.34-1.86-.83-2.67-1.45Z"/>
    </g>
    <rect class="cls-4" x="490.99" y="508.62" width=".95" height="41.9" transform="translate(-39.84 1019.18) rotate(-89.8)"/>
    <rect class="cls-4" x="99.28" y="508.62" width=".95" height="41.9" transform="translate(-430.16 627.47) rotate(-89.8)"/>
  </g>
  <g>
    <g>
      <polygon class="cls-1" points="250.28 275.99 290.16 253.69 344.99 283.29 344.99 343.76 303.76 365.64 303.76 305.59 250.28 275.99"/>
      <path class="cls-6" d="M302.76,367.3v-61.12l-54.53-30.18,41.93-23.45,55.84,30.14v61.68l-43.24,22.94ZM252.34,275.99l52.42,29.01v58.98l39.24-20.81v-59.28l-53.82-29.05-37.83,21.16Z"/>
    </g>
    <g>
      <polygon class="cls-2" points="255.11 398.65 255.11 334.38 293.81 313.91 293.81 345.64 293.81 414.62 287.29 414.62 255.11 398.65"/>
      <path class="cls-6" d="M294.81,415.62h-7.76l-32.94-16.35v-65.5l40.7-21.53v103.37ZM287.52,413.62h5.29v-98.05l-36.7,19.41v63.05l31.41,15.59Z"/>
    </g>
  </g>
</svg>